<mxfile host="65bd71144e">
    <diagram id="sujf4v-rWgCzgQQ87dnD" name="Page-1">
        <mxGraphModel dx="1707" dy="891" grid="1" gridSize="10" guides="1" tooltips="1" connect="1" arrows="1" fold="1" page="1" pageScale="1" pageWidth="1200" pageHeight="1920" math="0" shadow="0">
            <root>
                <mxCell id="0"/>
                <mxCell id="1" parent="0"/>
                <mxCell id="C_I8v56W9sGKnu4EjwUI-16" value="&lt;font style=&quot;font-size: 25px&quot;&gt;&amp;nbsp;Check for Login&lt;/font&gt;" style="edgeStyle=none;html=1;exitX=1;exitY=0.5;exitDx=0;exitDy=0;entryX=-0.001;entryY=0.163;entryDx=0;entryDy=0;entryPerimeter=0;verticalAlign=bottom;strokeWidth=4;rounded=1;" parent="1" edge="1">
                    <mxGeometry relative="1" as="geometry">
                        <mxPoint x="721" y="170" as="sourcePoint"/>
                        <mxPoint x="960.777" y="169.66999999999985" as="targetPoint"/>
                    </mxGeometry>
                </mxCell>
                <mxCell id="C_I8v56W9sGKnu4EjwUI-11" style="edgeStyle=none;html=1;exitX=0.5;exitY=1;exitDx=0;exitDy=0;entryX=0.5;entryY=0;entryDx=0;entryDy=0;fontSize=25;endArrow=open;endFill=0;strokeWidth=4;" parent="1" source="C_I8v56W9sGKnu4EjwUI-1" target="C_I8v56W9sGKnu4EjwUI-7" edge="1">
                    <mxGeometry relative="1" as="geometry"/>
                </mxCell>
                <mxCell id="C_I8v56W9sGKnu4EjwUI-1" value="" style="ellipse;whiteSpace=wrap;html=1;aspect=fixed;verticalAlign=bottom;" parent="1" vertex="1">
                    <mxGeometry x="480" y="80" width="240" height="240" as="geometry"/>
                </mxCell>
                <mxCell id="C_I8v56W9sGKnu4EjwUI-42" style="edgeStyle=none;html=1;fontSize=25;endArrow=open;endFill=0;entryX=0.75;entryY=1;entryDx=0;entryDy=0;exitX=0;exitY=0.558;exitDx=0;exitDy=0;exitPerimeter=0;strokeWidth=4;rounded=1;" parent="1" source="C_I8v56W9sGKnu4EjwUI-7" edge="1">
                    <mxGeometry relative="1" as="geometry">
                        <mxPoint x="192.5" y="245" as="targetPoint"/>
                        <mxPoint x="470" y="490" as="sourcePoint"/>
                        <Array as="points">
                            <mxPoint x="193" y="490"/>
                        </Array>
                    </mxGeometry>
                </mxCell>
                <mxCell id="C_I8v56W9sGKnu4EjwUI-22" style="edgeStyle=none;html=1;exitX=0.5;exitY=1;exitDx=0;exitDy=0;entryX=0.5;entryY=0;entryDx=0;entryDy=0;fontSize=25;endArrow=open;endFill=0;strokeWidth=4;" parent="1" source="C_I8v56W9sGKnu4EjwUI-7" target="C_I8v56W9sGKnu4EjwUI-46" edge="1">
                    <mxGeometry relative="1" as="geometry"/>
                </mxCell>
                <mxCell id="C_I8v56W9sGKnu4EjwUI-7" value="" style="ellipse;whiteSpace=wrap;html=1;aspect=fixed;" parent="1" vertex="1">
                    <mxGeometry x="480" y="357" width="240" height="240" as="geometry"/>
                </mxCell>
                <mxCell id="C_I8v56W9sGKnu4EjwUI-8" value="" style="ellipse;whiteSpace=wrap;html=1;aspect=fixed;" parent="1" vertex="1">
                    <mxGeometry x="480" y="1176" width="240" height="240" as="geometry"/>
                </mxCell>
                <mxCell id="C_I8v56W9sGKnu4EjwUI-15" value="&lt;font style=&quot;font-size: 25px&quot;&gt;Request for Login&lt;/font&gt;" style="edgeStyle=none;html=1;exitX=1;exitY=0.25;exitDx=0;exitDy=0;verticalAlign=bottom;strokeWidth=4;rounded=1;" parent="1" source="C_I8v56W9sGKnu4EjwUI-10" edge="1">
                    <mxGeometry relative="1" as="geometry">
                        <mxPoint x="480" y="166" as="targetPoint"/>
                    </mxGeometry>
                </mxCell>
                <mxCell id="C_I8v56W9sGKnu4EjwUI-39" style="edgeStyle=none;html=1;fontSize=25;endArrow=open;endFill=0;entryX=-0.008;entryY=0.455;entryDx=0;entryDy=0;entryPerimeter=0;strokeWidth=4;rounded=1;" parent="1" edge="1">
                    <mxGeometry relative="1" as="geometry">
                        <mxPoint x="53" y="250" as="sourcePoint"/>
                        <mxPoint x="471.0799999999999" y="1285.1999999999998" as="targetPoint"/>
                        <Array as="points">
                            <mxPoint x="53" y="1285"/>
                        </Array>
                    </mxGeometry>
                </mxCell>
                <mxCell id="C_I8v56W9sGKnu4EjwUI-43" style="edgeStyle=none;html=1;exitX=0.848;exitY=1.074;exitDx=0;exitDy=0;fontSize=25;endArrow=open;endFill=0;exitPerimeter=0;strokeWidth=4;rounded=1;" parent="1" edge="1">
                    <mxGeometry relative="1" as="geometry">
                        <mxPoint x="214.07999999999993" y="252.76999999999998" as="sourcePoint"/>
                        <mxPoint x="490" y="439" as="targetPoint"/>
                        <Array as="points">
                            <mxPoint x="214" y="440"/>
                        </Array>
                    </mxGeometry>
                </mxCell>
                <mxCell id="C_I8v56W9sGKnu4EjwUI-51" style="edgeStyle=none;html=1;exitX=0.5;exitY=1;exitDx=0;exitDy=0;entryX=-0.006;entryY=0.435;entryDx=0;entryDy=0;entryPerimeter=0;fontSize=25;endArrow=open;endFill=0;strokeWidth=4;rounded=1;" parent="1" target="C_I8v56W9sGKnu4EjwUI-47" edge="1">
                    <mxGeometry relative="1" as="geometry">
                        <mxPoint x="98" y="244.9999999999999" as="sourcePoint"/>
                        <mxPoint x="454.44000000000005" y="995.52" as="targetPoint"/>
                        <Array as="points">
                            <mxPoint x="98" y="996"/>
                        </Array>
                    </mxGeometry>
                </mxCell>
                <mxCell id="C_I8v56W9sGKnu4EjwUI-53" style="edgeStyle=none;html=1;entryX=-0.006;entryY=0.389;entryDx=0;entryDy=0;entryPerimeter=0;fontSize=25;endArrow=open;endFill=0;strokeWidth=4;rounded=1;" parent="1" target="C_I8v56W9sGKnu4EjwUI-46" edge="1">
                    <mxGeometry relative="1" as="geometry">
                        <mxPoint x="150" y="250" as="sourcePoint"/>
                        <Array as="points">
                            <mxPoint x="150" y="720"/>
                        </Array>
                    </mxGeometry>
                </mxCell>
                <mxCell id="C_I8v56W9sGKnu4EjwUI-10" value="&lt;font style=&quot;font-size: 25px&quot;&gt;ADMIN&lt;/font&gt;" style="rounded=1;whiteSpace=wrap;html=1;" parent="1" vertex="1">
                    <mxGeometry x="20" y="140" width="210" height="105" as="geometry"/>
                </mxCell>
                <mxCell id="C_I8v56W9sGKnu4EjwUI-12" value="&lt;font style=&quot;font-size: 25px&quot;&gt;User Mst / Order Mst / Payments Mst&lt;/font&gt;" style="rounded=1;whiteSpace=wrap;html=1;" parent="1" vertex="1">
                    <mxGeometry x="960" y="1261" width="223" height="90" as="geometry"/>
                </mxCell>
                <mxCell id="C_I8v56W9sGKnu4EjwUI-13" value="&lt;font style=&quot;font-size: 25px&quot;&gt;Category Mst&lt;/font&gt;" style="rounded=1;whiteSpace=wrap;html=1;" parent="1" vertex="1">
                    <mxGeometry x="960" y="432" width="223" height="90" as="geometry"/>
                </mxCell>
                <mxCell id="C_I8v56W9sGKnu4EjwUI-17" value="&lt;span style=&quot;font-size: 25px&quot;&gt;Reply&lt;/span&gt;" style="edgeStyle=none;html=1;exitX=0;exitY=0.75;exitDx=0;exitDy=0;entryX=1;entryY=0.5;entryDx=0;entryDy=0;verticalAlign=top;strokeWidth=4;rounded=1;" parent="1" source="C_I8v56W9sGKnu4EjwUI-14" edge="1">
                    <mxGeometry relative="1" as="geometry">
                        <mxPoint x="933" y="224" as="sourcePoint"/>
                        <mxPoint x="720" y="224" as="targetPoint"/>
                    </mxGeometry>
                </mxCell>
                <mxCell id="C_I8v56W9sGKnu4EjwUI-14" value="&lt;font style=&quot;font-size: 25px&quot;&gt;Admin Mst&lt;/font&gt;" style="rounded=1;whiteSpace=wrap;html=1;" parent="1" vertex="1">
                    <mxGeometry x="960" y="155" width="223" height="90" as="geometry"/>
                </mxCell>
                <mxCell id="C_I8v56W9sGKnu4EjwUI-18" value="&lt;font style=&quot;font-size: 25px&quot;&gt;Response&lt;/font&gt;" style="edgeStyle=none;html=1;exitX=0;exitY=0.5;exitDx=0;exitDy=0;verticalAlign=top;strokeWidth=4;rounded=1;" parent="1" edge="1">
                    <mxGeometry relative="1" as="geometry">
                        <mxPoint x="480" y="223" as="sourcePoint"/>
                        <mxPoint x="230" y="223" as="targetPoint"/>
                    </mxGeometry>
                </mxCell>
                <mxCell id="C_I8v56W9sGKnu4EjwUI-19" value="" style="endArrow=none;html=1;fontSize=25;exitX=0.083;exitY=0.365;exitDx=0;exitDy=0;exitPerimeter=0;entryX=1;entryY=0.5;entryDx=0;entryDy=0;" parent="1" target="C_I8v56W9sGKnu4EjwUI-1" edge="1">
                    <mxGeometry width="50" height="50" relative="1" as="geometry">
                        <mxPoint x="482.9200000000003" y="196.60000000000002" as="sourcePoint"/>
                        <mxPoint x="583" y="196.5" as="targetPoint"/>
                    </mxGeometry>
                </mxCell>
                <mxCell id="C_I8v56W9sGKnu4EjwUI-20" value="" style="endArrow=none;html=1;fontSize=25;exitX=0.083;exitY=0.365;exitDx=0;exitDy=0;exitPerimeter=0;entryX=1;entryY=0.5;entryDx=0;entryDy=0;" parent="1" edge="1">
                    <mxGeometry width="50" height="50" relative="1" as="geometry">
                        <mxPoint x="480.00000000000034" y="1306" as="sourcePoint"/>
                        <mxPoint x="717.08" y="1309.4" as="targetPoint"/>
                    </mxGeometry>
                </mxCell>
                <mxCell id="C_I8v56W9sGKnu4EjwUI-21" value="" style="endArrow=none;html=1;fontSize=25;exitX=0.083;exitY=0.365;exitDx=0;exitDy=0;exitPerimeter=0;entryX=1;entryY=0.5;entryDx=0;entryDy=0;" parent="1" edge="1">
                    <mxGeometry width="50" height="50" relative="1" as="geometry">
                        <mxPoint x="482.9200000000003" y="475.3000000000002" as="sourcePoint"/>
                        <mxPoint x="720" y="478.70000000000005" as="targetPoint"/>
                    </mxGeometry>
                </mxCell>
                <mxCell id="C_I8v56W9sGKnu4EjwUI-23" value="1.0" style="text;html=1;align=center;verticalAlign=middle;resizable=0;points=[];autosize=1;strokeColor=none;fillColor=none;fontSize=25;" parent="1" vertex="1">
                    <mxGeometry x="575" y="160" width="50" height="40" as="geometry"/>
                </mxCell>
                <mxCell id="C_I8v56W9sGKnu4EjwUI-24" value="Login" style="text;html=1;align=center;verticalAlign=middle;resizable=0;points=[];autosize=1;strokeColor=none;fillColor=none;fontSize=25;" parent="1" vertex="1">
                    <mxGeometry x="560" y="210" width="80" height="40" as="geometry"/>
                </mxCell>
                <mxCell id="C_I8v56W9sGKnu4EjwUI-25" value="2.0&lt;span style=&quot;color: rgba(0 , 0 , 0 , 0) ; font-family: monospace ; font-size: 0px&quot;&gt;%3CmxGraphModel%3E%3Croot%3E%3CmxCell%20id%3D%220%22%2F%3E%3CmxCell%20id%3D%221%22%20parent%3D%220%22%2F%3E%3CmxCell%20id%3D%222%22%20value%3D%22%22%20style%3D%22endArrow%3Dnone%3Bhtml%3D1%3BfontSize%3D25%3BexitX%3D0.083%3BexitY%3D0.365%3BexitDx%3D0%3BexitDy%3D0%3BexitPerimeter%3D0%3BentryX%3D1%3BentryY%3D0.5%3BentryDx%3D0%3BentryDy%3D0%3B%22%20edge%3D%221%22%20parent%3D%221%22%3E%3CmxGeometry%20width%3D%2250%22%20height%3D%2250%22%20relative%3D%221%22%20as%3D%22geometry%22%3E%3CmxPoint%20x%3D%22482.9200000000003%22%20y%3D%22196.60000000000014%22%20as%3D%22sourcePoint%22%2F%3E%3CmxPoint%20x%3D%22720%22%20y%3D%22200%22%20as%3D%22targetPoint%22%2F%3E%3C%2FmxGeometry%3E%3C%2FmxCell%3E%3C%2Froot%3E%3C%2FmxGraphModel%3E&lt;/span&gt;&lt;span style=&quot;color: rgba(0 , 0 , 0 , 0) ; font-family: monospace ; font-size: 0px&quot;&gt;%3CmxGraphModel%3E%3Croot%3E%3CmxCell%20id%3D%220%22%2F%3E%3CmxCell%20id%3D%221%22%20parent%3D%220%22%2F%3E%3CmxCell%20id%3D%222%22%20value%3D%22%22%20style%3D%22endArrow%3Dnone%3Bhtml%3D1%3BfontSize%3D25%3BexitX%3D0.083%3BexitY%3D0.365%3BexitDx%3D0%3BexitDy%3D0%3BexitPerimeter%3D0%3BentryX%3D1%3BentryY%3D0.5%3BentryDx%3D0%3BentryDy%3D0%3B%22%20edge%3D%221%22%20parent%3D%221%22%3E%3CmxGeometry%20width%3D%2250%22%20height%3D%2250%22%20relative%3D%221%22%20as%3D%22geometry%22%3E%3CmxPoint%20x%3D%22482.9200000000003%22%20y%3D%22196.60000000000014%22%20as%3D%22sourcePoint%22%2F%3E%3CmxPoint%20x%3D%22720%22%20y%3D%22200%22%20as%3D%22targetPoint%22%2F%3E%3C%2FmxGeometry%3E%3C%2FmxCell%3E%3C%2Froot%3E%3C%2FmxGraphModel%3E&lt;/span&gt;" style="text;html=1;align=center;verticalAlign=middle;resizable=0;points=[];autosize=1;strokeColor=none;fillColor=none;fontSize=25;" parent="1" vertex="1">
                    <mxGeometry x="575" y="437" width="50" height="40" as="geometry"/>
                </mxCell>
                <mxCell id="C_I8v56W9sGKnu4EjwUI-34" value="" style="edgeStyle=none;html=1;fontSize=17;" parent="1" source="C_I8v56W9sGKnu4EjwUI-26" edge="1">
                    <mxGeometry relative="1" as="geometry">
                        <mxPoint x="600" y="1306" as="targetPoint"/>
                    </mxGeometry>
                </mxCell>
                <mxCell id="C_I8v56W9sGKnu4EjwUI-26" value="5.0" style="text;html=1;align=center;verticalAlign=middle;resizable=0;points=[];autosize=1;strokeColor=none;fillColor=none;fontSize=25;" parent="1" vertex="1">
                    <mxGeometry x="575" y="1261" width="50" height="40" as="geometry"/>
                </mxCell>
                <mxCell id="C_I8v56W9sGKnu4EjwUI-27" value="&lt;font style=&quot;font-size: 24px&quot;&gt;Manage&lt;br&gt;Category&lt;/font&gt;" style="text;html=1;align=center;verticalAlign=middle;resizable=0;points=[];autosize=1;strokeColor=none;fillColor=none;fontSize=17;" parent="1" vertex="1">
                    <mxGeometry x="545" y="487" width="110" height="50" as="geometry"/>
                </mxCell>
                <mxCell id="C_I8v56W9sGKnu4EjwUI-30" value="&lt;font style=&quot;font-size: 25px&quot;&gt;Data Display&lt;/font&gt;" style="edgeStyle=none;html=1;exitX=0;exitY=0.75;exitDx=0;exitDy=0;entryX=1;entryY=0.5;entryDx=0;entryDy=0;verticalAlign=top;strokeWidth=4;rounded=1;" parent="1" edge="1">
                    <mxGeometry relative="1" as="geometry">
                        <mxPoint x="960" y="1324.83" as="sourcePoint"/>
                        <mxPoint x="720" y="1326.33" as="targetPoint"/>
                    </mxGeometry>
                </mxCell>
                <mxCell id="C_I8v56W9sGKnu4EjwUI-31" value="&lt;font&gt;&lt;font style=&quot;font-size: 25px&quot;&gt;Insert Data&lt;/font&gt;&lt;br&gt;&lt;/font&gt;" style="edgeStyle=none;html=1;exitX=1;exitY=0.5;exitDx=0;exitDy=0;entryX=-0.001;entryY=0.163;entryDx=0;entryDy=0;entryPerimeter=0;verticalAlign=bottom;strokeWidth=4;rounded=1;" parent="1" edge="1">
                    <mxGeometry relative="1" as="geometry">
                        <mxPoint x="720" y="457.3299999999999" as="sourcePoint"/>
                        <mxPoint x="959.777" y="456.9999999999998" as="targetPoint"/>
                    </mxGeometry>
                </mxCell>
                <mxCell id="C_I8v56W9sGKnu4EjwUI-32" value="&lt;font style=&quot;font-size: 25px&quot;&gt;Reply&lt;/font&gt;" style="edgeStyle=none;html=1;exitX=0;exitY=0.75;exitDx=0;exitDy=0;entryX=1;entryY=0.5;entryDx=0;entryDy=0;verticalAlign=top;strokeWidth=4;rounded=1;" parent="1" edge="1">
                    <mxGeometry relative="1" as="geometry">
                        <mxPoint x="960" y="509.8299999999999" as="sourcePoint"/>
                        <mxPoint x="720" y="511.3299999999999" as="targetPoint"/>
                    </mxGeometry>
                </mxCell>
                <mxCell id="C_I8v56W9sGKnu4EjwUI-36" value="&lt;font&gt;&lt;font style=&quot;font-size: 25px&quot;&gt;View Report&lt;/font&gt;&lt;br&gt;&lt;/font&gt;" style="edgeStyle=none;html=1;exitX=1;exitY=0.5;exitDx=0;exitDy=0;entryX=-0.001;entryY=0.163;entryDx=0;entryDy=0;entryPerimeter=0;verticalAlign=bottom;strokeWidth=4;rounded=1;" parent="1" edge="1">
                    <mxGeometry relative="1" as="geometry">
                        <mxPoint x="720.22" y="1280.56" as="sourcePoint"/>
                        <mxPoint x="959.9970000000001" y="1280.2299999999998" as="targetPoint"/>
                    </mxGeometry>
                </mxCell>
                <mxCell id="C_I8v56W9sGKnu4EjwUI-37" value="" style="endArrow=classic;html=1;fontSize=25;entryX=0.19;entryY=1.048;entryDx=0;entryDy=0;entryPerimeter=0;exitX=0;exitY=0.663;exitDx=0;exitDy=0;exitPerimeter=0;strokeWidth=4;rounded=1;" parent="1" edge="1">
                    <mxGeometry width="50" height="50" relative="1" as="geometry">
                        <mxPoint x="480" y="1334.08" as="sourcePoint"/>
                        <mxPoint x="42.899999999999864" y="249.99999999999986" as="targetPoint"/>
                        <Array as="points">
                            <mxPoint x="43" y="1330"/>
                            <mxPoint x="43" y="1188.96"/>
                        </Array>
                    </mxGeometry>
                </mxCell>
                <mxCell id="C_I8v56W9sGKnu4EjwUI-40" value="View Report" style="text;html=1;align=center;verticalAlign=middle;resizable=0;points=[];autosize=1;strokeColor=none;fillColor=none;fontSize=25;" parent="1" vertex="1">
                    <mxGeometry x="175" y="1226" width="150" height="40" as="geometry"/>
                </mxCell>
                <mxCell id="C_I8v56W9sGKnu4EjwUI-41" value="Display Data" style="text;html=1;align=center;verticalAlign=middle;resizable=0;points=[];autosize=1;strokeColor=none;fillColor=none;fontSize=25;" parent="1" vertex="1">
                    <mxGeometry x="169" y="1337" width="160" height="40" as="geometry"/>
                </mxCell>
                <mxCell id="C_I8v56W9sGKnu4EjwUI-45" value="Response" style="text;html=1;align=center;verticalAlign=middle;resizable=0;points=[];autosize=1;strokeColor=none;fillColor=none;fontSize=25;" parent="1" vertex="1">
                    <mxGeometry x="260" y="505" width="130" height="40" as="geometry"/>
                </mxCell>
                <mxCell id="C_I8v56W9sGKnu4EjwUI-52" style="edgeStyle=none;html=1;exitX=0;exitY=0.5;exitDx=0;exitDy=0;fontSize=25;endArrow=open;endFill=0;strokeWidth=4;rounded=1;" parent="1" source="C_I8v56W9sGKnu4EjwUI-46" edge="1">
                    <mxGeometry relative="1" as="geometry">
                        <mxPoint x="120" y="249.9999999999999" as="targetPoint"/>
                        <Array as="points">
                            <mxPoint x="120" y="745"/>
                        </Array>
                    </mxGeometry>
                </mxCell>
                <mxCell id="C_I8v56W9sGKnu4EjwUI-28" style="edgeStyle=none;html=1;exitX=0.5;exitY=1;exitDx=0;exitDy=0;fontSize=25;endArrow=open;endFill=0;strokeWidth=4;" parent="1" source="C_I8v56W9sGKnu4EjwUI-46" edge="1">
                    <mxGeometry relative="1" as="geometry">
                        <mxPoint x="599.9090909090905" y="890" as="targetPoint"/>
                    </mxGeometry>
                </mxCell>
                <mxCell id="C_I8v56W9sGKnu4EjwUI-46" value="" style="ellipse;whiteSpace=wrap;html=1;aspect=fixed;verticalAlign=bottom;" parent="1" vertex="1">
                    <mxGeometry x="480" y="625" width="240" height="240" as="geometry"/>
                </mxCell>
                <mxCell id="C_I8v56W9sGKnu4EjwUI-50" style="edgeStyle=none;html=1;exitX=0;exitY=0.5;exitDx=0;exitDy=0;entryX=0.25;entryY=1;entryDx=0;entryDy=0;fontSize=25;endArrow=open;endFill=0;strokeWidth=4;rounded=1;" parent="1" source="C_I8v56W9sGKnu4EjwUI-47" target="C_I8v56W9sGKnu4EjwUI-10" edge="1">
                    <mxGeometry relative="1" as="geometry">
                        <Array as="points">
                            <mxPoint x="73" y="1014"/>
                        </Array>
                    </mxGeometry>
                </mxCell>
                <mxCell id="C_I8v56W9sGKnu4EjwUI-29" style="edgeStyle=none;html=1;exitX=0.5;exitY=1;exitDx=0;exitDy=0;entryX=0.5;entryY=0;entryDx=0;entryDy=0;fontSize=25;endArrow=open;endFill=0;strokeWidth=4;" parent="1" source="C_I8v56W9sGKnu4EjwUI-47" target="C_I8v56W9sGKnu4EjwUI-8" edge="1">
                    <mxGeometry relative="1" as="geometry"/>
                </mxCell>
                <mxCell id="C_I8v56W9sGKnu4EjwUI-47" value="" style="ellipse;whiteSpace=wrap;html=1;aspect=fixed;verticalAlign=bottom;" parent="1" vertex="1">
                    <mxGeometry x="480" y="894" width="240" height="240" as="geometry"/>
                </mxCell>
                <mxCell id="C_I8v56W9sGKnu4EjwUI-48" value="" style="endArrow=none;html=1;fontSize=25;exitX=0.083;exitY=0.365;exitDx=0;exitDy=0;exitPerimeter=0;entryX=1;entryY=0.5;entryDx=0;entryDy=0;" parent="1" edge="1">
                    <mxGeometry width="50" height="50" relative="1" as="geometry">
                        <mxPoint x="482.92000000000047" y="1012.3" as="sourcePoint"/>
                        <mxPoint x="719.9999999999999" y="1015.7" as="targetPoint"/>
                    </mxGeometry>
                </mxCell>
                <mxCell id="C_I8v56W9sGKnu4EjwUI-49" value="" style="endArrow=none;html=1;fontSize=25;exitX=0.083;exitY=0.365;exitDx=0;exitDy=0;exitPerimeter=0;entryX=1;entryY=0.5;entryDx=0;entryDy=0;" parent="1" edge="1">
                    <mxGeometry width="50" height="50" relative="1" as="geometry">
                        <mxPoint x="482.92000000000047" y="743.3" as="sourcePoint"/>
                        <mxPoint x="719.9999999999999" y="746.7" as="targetPoint"/>
                    </mxGeometry>
                </mxCell>
                <mxCell id="C_I8v56W9sGKnu4EjwUI-54" value="&lt;font style=&quot;font-size: 25px&quot;&gt;Items Mst&lt;/font&gt;" style="rounded=1;whiteSpace=wrap;html=1;" parent="1" vertex="1">
                    <mxGeometry x="960" y="710" width="223" height="90" as="geometry"/>
                </mxCell>
                <mxCell id="C_I8v56W9sGKnu4EjwUI-55" value="&lt;font&gt;&lt;font style=&quot;font-size: 25px&quot;&gt;Insert Data&lt;/font&gt;&lt;br&gt;&lt;/font&gt;" style="edgeStyle=none;html=1;exitX=1;exitY=0.5;exitDx=0;exitDy=0;entryX=-0.001;entryY=0.163;entryDx=0;entryDy=0;entryPerimeter=0;verticalAlign=bottom;strokeWidth=4;rounded=1;" parent="1" edge="1">
                    <mxGeometry relative="1" as="geometry">
                        <mxPoint x="720.0000000000002" y="735.3299999999999" as="sourcePoint"/>
                        <mxPoint x="959.777" y="734.9999999999998" as="targetPoint"/>
                    </mxGeometry>
                </mxCell>
                <mxCell id="C_I8v56W9sGKnu4EjwUI-56" value="&lt;font style=&quot;font-size: 25px&quot;&gt;Reply&lt;/font&gt;" style="edgeStyle=none;html=1;exitX=0;exitY=0.75;exitDx=0;exitDy=0;entryX=1;entryY=0.5;entryDx=0;entryDy=0;verticalAlign=top;strokeWidth=4;rounded=1;" parent="1" edge="1">
                    <mxGeometry relative="1" as="geometry">
                        <mxPoint x="960" y="787.8299999999999" as="sourcePoint"/>
                        <mxPoint x="720.0000000000002" y="789.3299999999999" as="targetPoint"/>
                    </mxGeometry>
                </mxCell>
                <mxCell id="C_I8v56W9sGKnu4EjwUI-60" value="&lt;span style=&quot;font-size: 25px&quot;&gt;Orders Mst&lt;/span&gt;" style="rounded=1;whiteSpace=wrap;html=1;" parent="1" vertex="1">
                    <mxGeometry x="960" y="969" width="223" height="90" as="geometry"/>
                </mxCell>
                <mxCell id="C_I8v56W9sGKnu4EjwUI-61" value="&lt;font&gt;&lt;font style=&quot;font-size: 25px&quot;&gt;View Order&lt;/font&gt;&lt;br&gt;&lt;/font&gt;" style="edgeStyle=none;html=1;exitX=1;exitY=0.5;exitDx=0;exitDy=0;entryX=-0.001;entryY=0.163;entryDx=0;entryDy=0;entryPerimeter=0;verticalAlign=bottom;strokeWidth=4;rounded=1;" parent="1" edge="1">
                    <mxGeometry relative="1" as="geometry">
                        <mxPoint x="720.0000000000002" y="994.3299999999999" as="sourcePoint"/>
                        <mxPoint x="959.777" y="993.9999999999998" as="targetPoint"/>
                    </mxGeometry>
                </mxCell>
                <mxCell id="C_I8v56W9sGKnu4EjwUI-62" value="&lt;font style=&quot;font-size: 25px&quot;&gt;Reply&lt;/font&gt;" style="edgeStyle=none;html=1;exitX=0;exitY=0.75;exitDx=0;exitDy=0;entryX=1;entryY=0.5;entryDx=0;entryDy=0;verticalAlign=top;strokeWidth=4;rounded=1;" parent="1" edge="1">
                    <mxGeometry relative="1" as="geometry">
                        <mxPoint x="960" y="1046.83" as="sourcePoint"/>
                        <mxPoint x="720.0000000000002" y="1048.33" as="targetPoint"/>
                    </mxGeometry>
                </mxCell>
                <mxCell id="C_I8v56W9sGKnu4EjwUI-63" value="3.0" style="text;html=1;align=center;verticalAlign=middle;resizable=0;points=[];autosize=1;strokeColor=none;fillColor=none;fontSize=25;" parent="1" vertex="1">
                    <mxGeometry x="570" y="700" width="50" height="40" as="geometry"/>
                </mxCell>
                <mxCell id="C_I8v56W9sGKnu4EjwUI-64" value="4.0" style="text;html=1;align=center;verticalAlign=middle;resizable=0;points=[];autosize=1;strokeColor=none;fillColor=none;fontSize=25;" parent="1" vertex="1">
                    <mxGeometry x="575" y="965" width="50" height="40" as="geometry"/>
                </mxCell>
                <mxCell id="C_I8v56W9sGKnu4EjwUI-65" value="&lt;font style=&quot;font-size: 24px&quot;&gt;Manage&lt;br&gt;Items&lt;br&gt;&lt;/font&gt;" style="text;html=1;align=center;verticalAlign=middle;resizable=0;points=[];autosize=1;strokeColor=none;fillColor=none;fontSize=17;" parent="1" vertex="1">
                    <mxGeometry x="545" y="750" width="100" height="50" as="geometry"/>
                </mxCell>
                <mxCell id="C_I8v56W9sGKnu4EjwUI-66" value="&lt;font style=&quot;font-size: 24px&quot;&gt;Manage&lt;br&gt;Orders&lt;br&gt;&lt;/font&gt;" style="text;html=1;align=center;verticalAlign=middle;resizable=0;points=[];autosize=1;strokeColor=none;fillColor=none;fontSize=17;" parent="1" vertex="1">
                    <mxGeometry x="550" y="1020" width="100" height="50" as="geometry"/>
                </mxCell>
                <mxCell id="C_I8v56W9sGKnu4EjwUI-67" value="&lt;font style=&quot;font-size: 24px&quot;&gt;Manage&lt;br&gt;Reports&lt;br&gt;&lt;/font&gt;" style="text;html=1;align=center;verticalAlign=middle;resizable=0;points=[];autosize=1;strokeColor=none;fillColor=none;fontSize=17;" parent="1" vertex="1">
                    <mxGeometry x="545" y="1316" width="100" height="50" as="geometry"/>
                </mxCell>
                <mxCell id="C_I8v56W9sGKnu4EjwUI-2" value="Add / Edit Category" style="text;html=1;align=center;verticalAlign=middle;resizable=0;points=[];autosize=1;strokeColor=none;fillColor=none;fontSize=25;" parent="1" vertex="1">
                    <mxGeometry x="238" y="388" width="230" height="40" as="geometry"/>
                </mxCell>
                <mxCell id="C_I8v56W9sGKnu4EjwUI-3" value="Add / Edit Items" style="text;html=1;align=center;verticalAlign=middle;resizable=0;points=[];autosize=1;strokeColor=none;fillColor=none;fontSize=25;" parent="1" vertex="1">
                    <mxGeometry x="230" y="670" width="190" height="40" as="geometry"/>
                </mxCell>
                <mxCell id="C_I8v56W9sGKnu4EjwUI-4" value="Manage Orders" style="text;html=1;align=center;verticalAlign=middle;resizable=0;points=[];autosize=1;strokeColor=none;fillColor=none;fontSize=25;" parent="1" vertex="1">
                    <mxGeometry x="230" y="940" width="190" height="40" as="geometry"/>
                </mxCell>
                <mxCell id="C_I8v56W9sGKnu4EjwUI-5" value="Response" style="text;html=1;align=center;verticalAlign=middle;resizable=0;points=[];autosize=1;strokeColor=none;fillColor=none;fontSize=25;" parent="1" vertex="1">
                    <mxGeometry x="250" y="1030" width="130" height="40" as="geometry"/>
                </mxCell>
                <mxCell id="C_I8v56W9sGKnu4EjwUI-6" value="Response" style="text;html=1;align=center;verticalAlign=middle;resizable=0;points=[];autosize=1;strokeColor=none;fillColor=none;fontSize=25;" parent="1" vertex="1">
                    <mxGeometry x="250" y="755" width="130" height="40" as="geometry"/>
                </mxCell>
            </root>
        </mxGraphModel>
    </diagram>
</mxfile>